<?xml version="1.0" standalone="no"?>
<!DOCTYPE svg PUBLIC "-//W3C//DTD SVG 20010904//EN"
 "http://www.w3.org/TR/2001/REC-SVG-20010904/DTD/svg10.dtd">
<svg version="1.0" xmlns="http://www.w3.org/2000/svg"
 width="920.000000pt" height="920.000000pt" viewBox="0 0 920.000000 920.000000"
 preserveAspectRatio="xMidYMid meet">

<g transform="translate(0.000000,920.000000) scale(0.100000,-0.100000)"
fill="#000000" stroke="none">
<path d="M2520 7721 c-7 -14 -10 -916 -10 -2844 0 -2723 1 -2824 18 -2840 17
-16 114 -17 1189 -17 711 0 1232 4 1325 10 496 34 873 142 1158 333 171 114
354 333 469 562 238 472 237 1061 -2 1487 -155 277 -456 523 -774 634 -29 10
-53 21 -53 24 0 3 26 21 58 39 322 189 544 483 638 846 27 103 29 122 29 310
0 185 -3 208 -28 309 -70 277 -200 509 -392 701 -223 223 -498 355 -875 420
-236 41 -358 44 -1572 45 -1144 0 -1168 0 -1178 -19z m2152 -711 c391 -16 549
-42 703 -115 103 -50 185 -118 250 -209 151 -212 195 -527 110 -795 -69 -216
-230 -370 -470 -450 -209 -70 -383 -81 -1254 -81 l-691 0 0 830 0 830 553 0
c303 0 663 -5 799 -10z m268 -2384 c19 -3 82 -10 140 -16 318 -33 535 -123
691 -286 105 -110 164 -213 211 -372 20 -68 23 -98 23 -262 0 -147 -4 -198
-19 -250 -59 -214 -180 -396 -332 -500 -124 -86 -347 -159 -544 -179 -63 -7
-428 -11 -946 -11 l-844 0 0 946 0 946 793 -5 c435 -3 808 -8 827 -11z"/>
</g>
</svg>
